<svg fill="none" height="22" viewBox="0 0 99 22" width="99" xmlns="http://www.w3.org/2000/svg"><g fill="#fff"><path d="m5.22383 22.0001v-21.440041h-4.800002v21.440041z"/><path d="m14.1363 22.0001v-7.776h3.168c2.496 0 3.296.544 4.16 2.208l2.944 5.568h5.568l-3.104-5.76c-.8-1.504-1.536-2.528-3.456-3.04v-.256c4.032-.384 6.048-2.464 6.048-5.95204 0-4.096-3.008-6.432001-8.288-6.432001h-11.83997v21.440041zm0-17.12004h7.008c2.272 0 3.296.736 3.296 2.848 0 2.24-1.024 2.88004-3.296 2.88004h-7.008z"/><path d="m59.2366 22.0001v-4.32h-21.344v-4.32h20.864v-4.28804h-20.864v-4.192h21.344v-4.320001h-26.144v21.440041z"/><path d="m67.8051 22.0001v-10.336l-.192-3.93604h.32l2.72 4.03204 7.904 10.24h5.12v-21.440041h-4.8v10.336041l.224 4.32h-.352l-2.944-4.512-7.68-10.144041h-5.12v21.440041z"/><path d="m98.9678 22.0001v-4.32h-6.344v-4.32h5.864v-4.28804h-5.864v-4.192h6.344v-4.320001h-11.144v21.440041z"/></g></svg>